ISO-10303-21;
HEADER;
FILE_DESCRIPTION(('FreeCAD Model'),'2;1');
FILE_NAME('Open CASCADE Shape Model','2026-08-02T08:51:34',('Author'),(
    ''),'Open CASCADE STEP processor 7.8','FreeCAD','Unknown');
FILE_SCHEMA(('AUTOMOTIVE_DESIGN { 1 0 10303 214 1 1 1 1 }'));
ENDSEC;
DATA;
#1 = APPLICATION_PROTOCOL_DEFINITION('international standard',
  'automotive_design',2000,#2);
#2 = APPLICATION_CONTEXT(
  'core data for automotive mechanical design processes');
#3 = SHAPE_DEFINITION_REPRESENTATION(#4,#10);
#4 = PRODUCT_DEFINITION_SHAPE('','',#5);
#5 = PRODUCT_DEFINITION('design','',#6,#9);
#6 = PRODUCT_DEFINITION_FORMATION('','',#7);
#7 = PRODUCT('Corpo','Corpo','',(#8));
#8 = PRODUCT_CONTEXT('',#2,'mechanical');
#9 = PRODUCT_DEFINITION_CONTEXT('part definition',#2,'design');
#10 = ADVANCED_BREP_SHAPE_REPRESENTATION('',(#11,#15),#763);
#11 = AXIS2_PLACEMENT_3D('',#12,#13,#14);
#12 = CARTESIAN_POINT('',(0.,0.,0.));
#13 = DIRECTION('',(0.,0.,1.));
#14 = DIRECTION('',(1.,0.,-0.));
#15 = MANIFOLD_SOLID_BREP('',#16);
#16 = CLOSED_SHELL('',(#17,#89,#120,#297,#337,#368,#385,#402,#419,#436,
    #453,#465,#482,#499,#534,#615,#632,#654,#671,#688,#705,#722,#739,
    #751));
#17 = ADVANCED_FACE('',(#18),#84,.F.);
#18 = FACE_BOUND('',#19,.F.);
#19 = EDGE_LOOP('',(#20,#30,#38,#46,#54,#62,#70,#78));
#20 = ORIENTED_EDGE('',*,*,#21,.T.);
#21 = EDGE_CURVE('',#22,#24,#26,.T.);
#22 = VERTEX_POINT('',#23);
#23 = CARTESIAN_POINT('',(-38.5,-15.33974596215,0.));
#24 = VERTEX_POINT('',#25);
#25 = CARTESIAN_POINT('',(38.5,-15.33974596215,0.));
#26 = LINE('',#27,#28);
#27 = CARTESIAN_POINT('',(-38.5,-15.33974596215,0.));
#28 = VECTOR('',#29,1.);
#29 = DIRECTION('',(1.,0.,0.));
#30 = ORIENTED_EDGE('',*,*,#31,.T.);
#31 = EDGE_CURVE('',#24,#32,#34,.T.);
#32 = VERTEX_POINT('',#33);
#33 = CARTESIAN_POINT('',(38.5,15.339745962156,0.));
#34 = LINE('',#35,#36);
#35 = CARTESIAN_POINT('',(38.5,-15.33974596215,0.));
#36 = VECTOR('',#37,1.);
#37 = DIRECTION('',(0.,1.,0.));
#38 = ORIENTED_EDGE('',*,*,#39,.T.);
#39 = EDGE_CURVE('',#32,#40,#42,.T.);
#40 = VERTEX_POINT('',#41);
#41 = CARTESIAN_POINT('',(-38.5,15.339745962156,0.));
#42 = LINE('',#43,#44);
#43 = CARTESIAN_POINT('',(38.5,15.339745962156,0.));
#44 = VECTOR('',#45,1.);
#45 = DIRECTION('',(-1.,0.,0.));
#46 = ORIENTED_EDGE('',*,*,#47,.T.);
#47 = EDGE_CURVE('',#40,#48,#50,.T.);
#48 = VERTEX_POINT('',#49);
#49 = CARTESIAN_POINT('',(-43.5,24.,0.));
#50 = LINE('',#51,#52);
#51 = CARTESIAN_POINT('',(-38.5,15.339745962156,0.));
#52 = VECTOR('',#53,1.);
#53 = DIRECTION('',(-0.5,0.866025403784,0.));
#54 = ORIENTED_EDGE('',*,*,#55,.T.);
#55 = EDGE_CURVE('',#48,#56,#58,.T.);
#56 = VERTEX_POINT('',#57);
#57 = CARTESIAN_POINT('',(-91.5,24.,0.));
#58 = LINE('',#59,#60);
#59 = CARTESIAN_POINT('',(-43.5,24.,0.));
#60 = VECTOR('',#61,1.);
#61 = DIRECTION('',(-1.,0.,0.));
#62 = ORIENTED_EDGE('',*,*,#63,.T.);
#63 = EDGE_CURVE('',#56,#64,#66,.T.);
#64 = VERTEX_POINT('',#65);
#65 = CARTESIAN_POINT('',(-91.5,-24.,0.));
#66 = LINE('',#67,#68);
#67 = CARTESIAN_POINT('',(-91.5,24.,0.));
#68 = VECTOR('',#69,1.);
#69 = DIRECTION('',(0.,-1.,0.));
#70 = ORIENTED_EDGE('',*,*,#71,.T.);
#71 = EDGE_CURVE('',#64,#72,#74,.T.);
#72 = VERTEX_POINT('',#73);
#73 = CARTESIAN_POINT('',(-43.5,-24.,0.));
#74 = LINE('',#75,#76);
#75 = CARTESIAN_POINT('',(-91.5,-24.,0.));
#76 = VECTOR('',#77,1.);
#77 = DIRECTION('',(1.,0.,0.));
#78 = ORIENTED_EDGE('',*,*,#79,.F.);
#79 = EDGE_CURVE('',#22,#72,#80,.T.);
#80 = LINE('',#81,#82);
#81 = CARTESIAN_POINT('',(-38.5,-15.33974596215,0.));
#82 = VECTOR('',#83,1.);
#83 = DIRECTION('',(-0.5,-0.866025403784,0.));
#84 = PLANE('',#85);
#85 = AXIS2_PLACEMENT_3D('',#86,#87,#88);
#86 = CARTESIAN_POINT('',(-30.14470252582,1.222686310294E-16,0.));
#87 = DIRECTION('',(0.,0.,1.));
#88 = DIRECTION('',(1.,0.,0.));
#89 = ADVANCED_FACE('',(#90),#115,.T.);
#90 = FACE_BOUND('',#91,.T.);
#91 = EDGE_LOOP('',(#92,#93,#101,#109));
#92 = ORIENTED_EDGE('',*,*,#21,.T.);
#93 = ORIENTED_EDGE('',*,*,#94,.T.);
#94 = EDGE_CURVE('',#24,#95,#97,.T.);
#95 = VERTEX_POINT('',#96);
#96 = CARTESIAN_POINT('',(38.5,-15.33974596215,18.9));
#97 = LINE('',#98,#99);
#98 = CARTESIAN_POINT('',(38.5,-15.33974596215,0.));
#99 = VECTOR('',#100,1.);
#100 = DIRECTION('',(0.,0.,1.));
#101 = ORIENTED_EDGE('',*,*,#102,.F.);
#102 = EDGE_CURVE('',#103,#95,#105,.T.);
#103 = VERTEX_POINT('',#104);
#104 = CARTESIAN_POINT('',(-38.5,-15.33974596215,18.9));
#105 = LINE('',#106,#107);
#106 = CARTESIAN_POINT('',(-38.5,-15.33974596215,18.9));
#107 = VECTOR('',#108,1.);
#108 = DIRECTION('',(1.,0.,0.));
#109 = ORIENTED_EDGE('',*,*,#110,.F.);
#110 = EDGE_CURVE('',#22,#103,#111,.T.);
#111 = LINE('',#112,#113);
#112 = CARTESIAN_POINT('',(-38.5,-15.33974596215,16.9));
#113 = VECTOR('',#114,1.);
#114 = DIRECTION('',(0.,0.,1.));
#115 = PLANE('',#116);
#116 = AXIS2_PLACEMENT_3D('',#117,#118,#119);
#117 = CARTESIAN_POINT('',(0.,-15.33974596215,9.45));
#118 = DIRECTION('',(-0.,-1.,-0.));
#119 = DIRECTION('',(0.,0.,-1.));
#120 = ADVANCED_FACE('',(#121),#292,.T.);
#121 = FACE_BOUND('',#122,.T.);
#122 = EDGE_LOOP('',(#123,#131,#132,#140,#148,#156,#164,#173,#181,#189,
    #197,#205,#213,#222,#230,#238,#246,#254,#262,#270,#278,#286));
#123 = ORIENTED_EDGE('',*,*,#124,.F.);
#124 = EDGE_CURVE('',#103,#125,#127,.T.);
#125 = VERTEX_POINT('',#126);
#126 = CARTESIAN_POINT('',(-43.5,-24.,18.9));
#127 = LINE('',#128,#129);
#128 = CARTESIAN_POINT('',(-38.5,-15.33974596215,18.9));
#129 = VECTOR('',#130,1.);
#130 = DIRECTION('',(-0.5,-0.866025403784,0.));
#131 = ORIENTED_EDGE('',*,*,#102,.T.);
#132 = ORIENTED_EDGE('',*,*,#133,.T.);
#133 = EDGE_CURVE('',#95,#134,#136,.T.);
#134 = VERTEX_POINT('',#135);
#135 = CARTESIAN_POINT('',(38.5,-9.869438,18.9));
#136 = LINE('',#137,#138);
#137 = CARTESIAN_POINT('',(38.5,-15.33974596215,18.9));
#138 = VECTOR('',#139,1.);
#139 = DIRECTION('',(0.,1.,0.));
#140 = ORIENTED_EDGE('',*,*,#141,.F.);
#141 = EDGE_CURVE('',#142,#134,#144,.T.);
#142 = VERTEX_POINT('',#143);
#143 = CARTESIAN_POINT('',(35.7,-9.869438,18.9));
#144 = LINE('',#145,#146);
#145 = CARTESIAN_POINT('',(4.177648737088,-9.869438,18.9));
#146 = VECTOR('',#147,1.);
#147 = DIRECTION('',(1.,0.,0.));
#148 = ORIENTED_EDGE('',*,*,#149,.F.);
#149 = EDGE_CURVE('',#150,#142,#152,.T.);
#150 = VERTEX_POINT('',#151);
#151 = CARTESIAN_POINT('',(35.7,-12.53974596215,18.9));
#152 = LINE('',#153,#154);
#153 = CARTESIAN_POINT('',(35.7,-15.33974596215,18.9));
#154 = VECTOR('',#155,1.);
#155 = DIRECTION('',(0.,1.,0.));
#156 = ORIENTED_EDGE('',*,*,#157,.F.);
#157 = EDGE_CURVE('',#158,#150,#160,.T.);
#158 = VERTEX_POINT('',#159);
#159 = CARTESIAN_POINT('',(-38.5,-12.53974596215,18.9));
#160 = LINE('',#161,#162);
#161 = CARTESIAN_POINT('',(-38.5,-12.53974596215,18.9));
#162 = VECTOR('',#163,1.);
#163 = DIRECTION('',(1.,0.,0.));
#164 = ORIENTED_EDGE('',*,*,#165,.T.);
#165 = EDGE_CURVE('',#158,#166,#168,.T.);
#166 = VERTEX_POINT('',#167);
#167 = CARTESIAN_POINT('',(-40.92487113059,-13.93974596215,18.9));
#168 = CIRCLE('',#169,2.8);
#169 = AXIS2_PLACEMENT_3D('',#170,#171,#172);
#170 = CARTESIAN_POINT('',(-38.5,-15.33974596215,18.9));
#171 = DIRECTION('',(0.,-0.,1.));
#172 = DIRECTION('',(1.,1.110223024625E-16,0.));
#173 = ORIENTED_EDGE('',*,*,#174,.T.);
#174 = EDGE_CURVE('',#166,#175,#177,.T.);
#175 = VERTEX_POINT('',#176);
#176 = CARTESIAN_POINT('',(-45.11658075373,-21.2,18.9));
#177 = LINE('',#178,#179);
#178 = CARTESIAN_POINT('',(-40.92487113059,-13.93974596215,18.9));
#179 = VECTOR('',#180,1.);
#180 = DIRECTION('',(-0.5,-0.866025403784,0.));
#181 = ORIENTED_EDGE('',*,*,#182,.F.);
#182 = EDGE_CURVE('',#183,#175,#185,.T.);
#183 = VERTEX_POINT('',#184);
#184 = CARTESIAN_POINT('',(-88.7,-21.2,18.9));
#185 = LINE('',#186,#187);
#186 = CARTESIAN_POINT('',(-91.5,-21.2,18.9));
#187 = VECTOR('',#188,1.);
#188 = DIRECTION('',(1.,0.,0.));
#189 = ORIENTED_EDGE('',*,*,#190,.F.);
#190 = EDGE_CURVE('',#191,#183,#193,.T.);
#191 = VERTEX_POINT('',#192);
#192 = CARTESIAN_POINT('',(-88.7,21.2,18.9));
#193 = LINE('',#194,#195);
#194 = CARTESIAN_POINT('',(-88.7,24.,18.9));
#195 = VECTOR('',#196,1.);
#196 = DIRECTION('',(0.,-1.,0.));
#197 = ORIENTED_EDGE('',*,*,#198,.F.);
#198 = EDGE_CURVE('',#199,#191,#201,.T.);
#199 = VERTEX_POINT('',#200);
#200 = CARTESIAN_POINT('',(-45.11658075373,21.2,18.9));
#201 = LINE('',#202,#203);
#202 = CARTESIAN_POINT('',(-43.5,21.2,18.9));
#203 = VECTOR('',#204,1.);
#204 = DIRECTION('',(-1.,0.,0.));
#205 = ORIENTED_EDGE('',*,*,#206,.F.);
#206 = EDGE_CURVE('',#207,#199,#209,.T.);
#207 = VERTEX_POINT('',#208);
#208 = CARTESIAN_POINT('',(-40.92487113059,13.939745962156,18.9));
#209 = LINE('',#210,#211);
#210 = CARTESIAN_POINT('',(-40.92487113059,13.939745962156,18.9));
#211 = VECTOR('',#212,1.);
#212 = DIRECTION('',(-0.5,0.866025403784,0.));
#213 = ORIENTED_EDGE('',*,*,#214,.F.);
#214 = EDGE_CURVE('',#215,#207,#217,.T.);
#215 = VERTEX_POINT('',#216);
#216 = CARTESIAN_POINT('',(-38.5,12.539745962156,18.9));
#217 = CIRCLE('',#218,2.8);
#218 = AXIS2_PLACEMENT_3D('',#219,#220,#221);
#219 = CARTESIAN_POINT('',(-38.5,15.339745962156,18.9));
#220 = DIRECTION('',(0.,-0.,-1.));
#221 = DIRECTION('',(1.,-1.110223024625E-16,0.));
#222 = ORIENTED_EDGE('',*,*,#223,.F.);
#223 = EDGE_CURVE('',#224,#215,#226,.T.);
#224 = VERTEX_POINT('',#225);
#225 = CARTESIAN_POINT('',(35.7,12.539745962156,18.9));
#226 = LINE('',#227,#228);
#227 = CARTESIAN_POINT('',(38.5,12.539745962156,18.9));
#228 = VECTOR('',#229,1.);
#229 = DIRECTION('',(-1.,0.,0.));
#230 = ORIENTED_EDGE('',*,*,#231,.F.);
#231 = EDGE_CURVE('',#232,#224,#234,.T.);
#232 = VERTEX_POINT('',#233);
#233 = CARTESIAN_POINT('',(35.7,10.130562,18.9));
#234 = LINE('',#235,#236);
#235 = CARTESIAN_POINT('',(35.7,-15.33974596215,18.9));
#236 = VECTOR('',#237,1.);
#237 = DIRECTION('',(0.,1.,0.));
#238 = ORIENTED_EDGE('',*,*,#239,.F.);
#239 = EDGE_CURVE('',#240,#232,#242,.T.);
#240 = VERTEX_POINT('',#241);
#241 = CARTESIAN_POINT('',(38.5,10.130562,18.9));
#242 = LINE('',#243,#244);
#243 = CARTESIAN_POINT('',(4.177648737088,10.130562,18.9));
#244 = VECTOR('',#245,1.);
#245 = DIRECTION('',(-1.,0.,0.));
#246 = ORIENTED_EDGE('',*,*,#247,.T.);
#247 = EDGE_CURVE('',#240,#248,#250,.T.);
#248 = VERTEX_POINT('',#249);
#249 = CARTESIAN_POINT('',(38.5,15.339745962156,18.9));
#250 = LINE('',#251,#252);
#251 = CARTESIAN_POINT('',(38.5,-15.33974596215,18.9));
#252 = VECTOR('',#253,1.);
#253 = DIRECTION('',(0.,1.,0.));
#254 = ORIENTED_EDGE('',*,*,#255,.T.);
#255 = EDGE_CURVE('',#248,#256,#258,.T.);
#256 = VERTEX_POINT('',#257);
#257 = CARTESIAN_POINT('',(-38.5,15.339745962156,18.9));
#258 = LINE('',#259,#260);
#259 = CARTESIAN_POINT('',(38.5,15.339745962156,18.9));
#260 = VECTOR('',#261,1.);
#261 = DIRECTION('',(-1.,0.,0.));
#262 = ORIENTED_EDGE('',*,*,#263,.T.);
#263 = EDGE_CURVE('',#256,#264,#266,.T.);
#264 = VERTEX_POINT('',#265);
#265 = CARTESIAN_POINT('',(-43.5,24.,18.9));
#266 = LINE('',#267,#268);
#267 = CARTESIAN_POINT('',(-38.5,15.339745962156,18.9));
#268 = VECTOR('',#269,1.);
#269 = DIRECTION('',(-0.5,0.866025403784,0.));
#270 = ORIENTED_EDGE('',*,*,#271,.T.);
#271 = EDGE_CURVE('',#264,#272,#274,.T.);
#272 = VERTEX_POINT('',#273);
#273 = CARTESIAN_POINT('',(-91.5,24.,18.9));
#274 = LINE('',#275,#276);
#275 = CARTESIAN_POINT('',(-43.5,24.,18.9));
#276 = VECTOR('',#277,1.);
#277 = DIRECTION('',(-1.,0.,0.));
#278 = ORIENTED_EDGE('',*,*,#279,.T.);
#279 = EDGE_CURVE('',#272,#280,#282,.T.);
#280 = VERTEX_POINT('',#281);
#281 = CARTESIAN_POINT('',(-91.5,-24.,18.9));
#282 = LINE('',#283,#284);
#283 = CARTESIAN_POINT('',(-91.5,24.,18.9));
#284 = VECTOR('',#285,1.);
#285 = DIRECTION('',(0.,-1.,0.));
#286 = ORIENTED_EDGE('',*,*,#287,.T.);
#287 = EDGE_CURVE('',#280,#125,#288,.T.);
#288 = LINE('',#289,#290);
#289 = CARTESIAN_POINT('',(-91.5,-24.,18.9));
#290 = VECTOR('',#291,1.);
#291 = DIRECTION('',(1.,0.,0.));
#292 = PLANE('',#293);
#293 = AXIS2_PLACEMENT_3D('',#294,#295,#296);
#294 = CARTESIAN_POINT('',(-30.14470252582,1.222686310294E-16,18.9));
#295 = DIRECTION('',(0.,0.,1.));
#296 = DIRECTION('',(1.,0.,0.));
#297 = ADVANCED_FACE('',(#298),#332,.T.);
#298 = FACE_BOUND('',#299,.T.);
#299 = EDGE_LOOP('',(#300,#301,#302,#308,#309,#317,#325,#331));
#300 = ORIENTED_EDGE('',*,*,#94,.F.);
#301 = ORIENTED_EDGE('',*,*,#31,.T.);
#302 = ORIENTED_EDGE('',*,*,#303,.T.);
#303 = EDGE_CURVE('',#32,#248,#304,.T.);
#304 = LINE('',#305,#306);
#305 = CARTESIAN_POINT('',(38.5,15.339745962156,0.));
#306 = VECTOR('',#307,1.);
#307 = DIRECTION('',(0.,0.,1.));
#308 = ORIENTED_EDGE('',*,*,#247,.F.);
#309 = ORIENTED_EDGE('',*,*,#310,.F.);
#310 = EDGE_CURVE('',#311,#240,#313,.T.);
#311 = VERTEX_POINT('',#312);
#312 = CARTESIAN_POINT('',(38.5,10.130562,3.061002));
#313 = LINE('',#314,#315);
#314 = CARTESIAN_POINT('',(38.5,10.130562,16.9));
#315 = VECTOR('',#316,1.);
#316 = DIRECTION('',(0.,0.,1.));
#317 = ORIENTED_EDGE('',*,*,#318,.F.);
#318 = EDGE_CURVE('',#319,#311,#321,.T.);
#319 = VERTEX_POINT('',#320);
#320 = CARTESIAN_POINT('',(38.5,-9.869438,3.061002));
#321 = LINE('',#322,#323);
#322 = CARTESIAN_POINT('',(38.5,-9.869438,3.061002));
#323 = VECTOR('',#324,1.);
#324 = DIRECTION('',(0.,1.,0.));
#325 = ORIENTED_EDGE('',*,*,#326,.F.);
#326 = EDGE_CURVE('',#134,#319,#327,.T.);
#327 = LINE('',#328,#329);
#328 = CARTESIAN_POINT('',(38.5,-9.869438,17.820489));
#329 = VECTOR('',#330,1.);
#330 = DIRECTION('',(0.,0.,-1.));
#331 = ORIENTED_EDGE('',*,*,#133,.F.);
#332 = PLANE('',#333);
#333 = AXIS2_PLACEMENT_3D('',#334,#335,#336);
#334 = CARTESIAN_POINT('',(38.5,3.161141841196E-02,7.399381315937));
#335 = DIRECTION('',(1.,0.,0.));
#336 = DIRECTION('',(0.,0.,1.));
#337 = ADVANCED_FACE('',(#338),#363,.F.);
#338 = FACE_BOUND('',#339,.F.);
#339 = EDGE_LOOP('',(#340,#341,#349,#357));
#340 = ORIENTED_EDGE('',*,*,#318,.F.);
#341 = ORIENTED_EDGE('',*,*,#342,.T.);
#342 = EDGE_CURVE('',#319,#343,#345,.T.);
#343 = VERTEX_POINT('',#344);
#344 = CARTESIAN_POINT('',(35.7,-9.869438,3.061002));
#345 = LINE('',#346,#347);
#346 = CARTESIAN_POINT('',(38.5,-9.869438,3.061002));
#347 = VECTOR('',#348,1.);
#348 = DIRECTION('',(-1.,-0.,-0.));
#349 = ORIENTED_EDGE('',*,*,#350,.T.);
#350 = EDGE_CURVE('',#343,#351,#353,.T.);
#351 = VERTEX_POINT('',#352);
#352 = CARTESIAN_POINT('',(35.7,10.130562,3.061002));
#353 = LINE('',#354,#355);
#354 = CARTESIAN_POINT('',(35.7,-4.934719,3.061002));
#355 = VECTOR('',#356,1.);
#356 = DIRECTION('',(0.,1.,0.));
#357 = ORIENTED_EDGE('',*,*,#358,.F.);
#358 = EDGE_CURVE('',#311,#351,#359,.T.);
#359 = LINE('',#360,#361);
#360 = CARTESIAN_POINT('',(38.5,10.130562,3.061002));
#361 = VECTOR('',#362,1.);
#362 = DIRECTION('',(-1.,-0.,-0.));
#363 = PLANE('',#364);
#364 = AXIS2_PLACEMENT_3D('',#365,#366,#367);
#365 = CARTESIAN_POINT('',(38.5,-9.869438,3.061002));
#366 = DIRECTION('',(0.,0.,-1.));
#367 = DIRECTION('',(0.,1.,0.));
#368 = ADVANCED_FACE('',(#369),#380,.T.);
#369 = FACE_BOUND('',#370,.T.);
#370 = EDGE_LOOP('',(#371,#372,#373,#379));
#371 = ORIENTED_EDGE('',*,*,#303,.F.);
#372 = ORIENTED_EDGE('',*,*,#39,.T.);
#373 = ORIENTED_EDGE('',*,*,#374,.T.);
#374 = EDGE_CURVE('',#40,#256,#375,.T.);
#375 = LINE('',#376,#377);
#376 = CARTESIAN_POINT('',(-38.5,15.339745962156,0.));
#377 = VECTOR('',#378,1.);
#378 = DIRECTION('',(0.,0.,1.));
#379 = ORIENTED_EDGE('',*,*,#255,.F.);
#380 = PLANE('',#381);
#381 = AXIS2_PLACEMENT_3D('',#382,#383,#384);
#382 = CARTESIAN_POINT('',(0.,15.339745962156,9.45));
#383 = DIRECTION('',(0.,1.,0.));
#384 = DIRECTION('',(0.,0.,1.));
#385 = ADVANCED_FACE('',(#386),#397,.T.);
#386 = FACE_BOUND('',#387,.T.);
#387 = EDGE_LOOP('',(#388,#389,#390,#396));
#388 = ORIENTED_EDGE('',*,*,#374,.F.);
#389 = ORIENTED_EDGE('',*,*,#47,.T.);
#390 = ORIENTED_EDGE('',*,*,#391,.T.);
#391 = EDGE_CURVE('',#48,#264,#392,.T.);
#392 = LINE('',#393,#394);
#393 = CARTESIAN_POINT('',(-43.5,24.,0.));
#394 = VECTOR('',#395,1.);
#395 = DIRECTION('',(0.,0.,1.));
#396 = ORIENTED_EDGE('',*,*,#263,.F.);
#397 = PLANE('',#398);
#398 = AXIS2_PLACEMENT_3D('',#399,#400,#401);
#399 = CARTESIAN_POINT('',(-41.,19.669872981078,9.45));
#400 = DIRECTION('',(0.866025403784,0.5,0.));
#401 = DIRECTION('',(-0.5,0.866025403784,0.));
#402 = ADVANCED_FACE('',(#403),#414,.T.);
#403 = FACE_BOUND('',#404,.T.);
#404 = EDGE_LOOP('',(#405,#406,#407,#413));
#405 = ORIENTED_EDGE('',*,*,#391,.F.);
#406 = ORIENTED_EDGE('',*,*,#55,.T.);
#407 = ORIENTED_EDGE('',*,*,#408,.T.);
#408 = EDGE_CURVE('',#56,#272,#409,.T.);
#409 = LINE('',#410,#411);
#410 = CARTESIAN_POINT('',(-91.5,24.,0.));
#411 = VECTOR('',#412,1.);
#412 = DIRECTION('',(0.,0.,1.));
#413 = ORIENTED_EDGE('',*,*,#271,.F.);
#414 = PLANE('',#415);
#415 = AXIS2_PLACEMENT_3D('',#416,#417,#418);
#416 = CARTESIAN_POINT('',(-67.5,24.,9.45));
#417 = DIRECTION('',(0.,1.,0.));
#418 = DIRECTION('',(0.,0.,1.));
#419 = ADVANCED_FACE('',(#420),#431,.T.);
#420 = FACE_BOUND('',#421,.T.);
#421 = EDGE_LOOP('',(#422,#423,#424,#430));
#422 = ORIENTED_EDGE('',*,*,#408,.F.);
#423 = ORIENTED_EDGE('',*,*,#63,.T.);
#424 = ORIENTED_EDGE('',*,*,#425,.T.);
#425 = EDGE_CURVE('',#64,#280,#426,.T.);
#426 = LINE('',#427,#428);
#427 = CARTESIAN_POINT('',(-91.5,-24.,10.));
#428 = VECTOR('',#429,1.);
#429 = DIRECTION('',(0.,0.,1.));
#430 = ORIENTED_EDGE('',*,*,#279,.F.);
#431 = PLANE('',#432);
#432 = AXIS2_PLACEMENT_3D('',#433,#434,#435);
#433 = CARTESIAN_POINT('',(-91.5,0.,9.45));
#434 = DIRECTION('',(-1.,-0.,-0.));
#435 = DIRECTION('',(0.,0.,-1.));
#436 = ADVANCED_FACE('',(#437),#448,.T.);
#437 = FACE_BOUND('',#438,.T.);
#438 = EDGE_LOOP('',(#439,#440,#446,#447));
#439 = ORIENTED_EDGE('',*,*,#71,.T.);
#440 = ORIENTED_EDGE('',*,*,#441,.T.);
#441 = EDGE_CURVE('',#72,#125,#442,.T.);
#442 = LINE('',#443,#444);
#443 = CARTESIAN_POINT('',(-43.5,-24.,10.));
#444 = VECTOR('',#445,1.);
#445 = DIRECTION('',(0.,0.,1.));
#446 = ORIENTED_EDGE('',*,*,#287,.F.);
#447 = ORIENTED_EDGE('',*,*,#425,.F.);
#448 = PLANE('',#449);
#449 = AXIS2_PLACEMENT_3D('',#450,#451,#452);
#450 = CARTESIAN_POINT('',(-67.5,-24.,9.45));
#451 = DIRECTION('',(-0.,-1.,-0.));
#452 = DIRECTION('',(0.,0.,-1.));
#453 = ADVANCED_FACE('',(#454),#460,.T.);
#454 = FACE_BOUND('',#455,.T.);
#455 = EDGE_LOOP('',(#456,#457,#458,#459));
#456 = ORIENTED_EDGE('',*,*,#110,.T.);
#457 = ORIENTED_EDGE('',*,*,#124,.T.);
#458 = ORIENTED_EDGE('',*,*,#441,.F.);
#459 = ORIENTED_EDGE('',*,*,#79,.F.);
#460 = PLANE('',#461);
#461 = AXIS2_PLACEMENT_3D('',#462,#463,#464);
#462 = CARTESIAN_POINT('',(-41.,-19.66987298107,9.45));
#463 = DIRECTION('',(0.866025403784,-0.5,0.));
#464 = DIRECTION('',(0.5,0.866025403784,0.));
#465 = ADVANCED_FACE('',(#466),#477,.T.);
#466 = FACE_BOUND('',#467,.T.);
#467 = EDGE_LOOP('',(#468,#469,#470,#476));
#468 = ORIENTED_EDGE('',*,*,#310,.T.);
#469 = ORIENTED_EDGE('',*,*,#239,.T.);
#470 = ORIENTED_EDGE('',*,*,#471,.F.);
#471 = EDGE_CURVE('',#351,#232,#472,.T.);
#472 = LINE('',#473,#474);
#473 = CARTESIAN_POINT('',(35.7,10.130562,16.9));
#474 = VECTOR('',#475,1.);
#475 = DIRECTION('',(0.,0.,1.));
#476 = ORIENTED_EDGE('',*,*,#358,.F.);
#477 = PLANE('',#478);
#478 = AXIS2_PLACEMENT_3D('',#479,#480,#481);
#479 = CARTESIAN_POINT('',(37.1,10.130562,10.980501));
#480 = DIRECTION('',(-0.,-1.,-0.));
#481 = DIRECTION('',(0.,0.,-1.));
#482 = ADVANCED_FACE('',(#483),#494,.T.);
#483 = FACE_BOUND('',#484,.T.);
#484 = EDGE_LOOP('',(#485,#486,#487,#493));
#485 = ORIENTED_EDGE('',*,*,#326,.T.);
#486 = ORIENTED_EDGE('',*,*,#342,.T.);
#487 = ORIENTED_EDGE('',*,*,#488,.F.);
#488 = EDGE_CURVE('',#142,#343,#489,.T.);
#489 = LINE('',#490,#491);
#490 = CARTESIAN_POINT('',(35.7,-9.869438,12.6602445));
#491 = VECTOR('',#492,1.);
#492 = DIRECTION('',(0.,0.,-1.));
#493 = ORIENTED_EDGE('',*,*,#141,.T.);
#494 = PLANE('',#495);
#495 = AXIS2_PLACEMENT_3D('',#496,#497,#498);
#496 = CARTESIAN_POINT('',(37.1,-9.869438,10.980501));
#497 = DIRECTION('',(0.,1.,0.));
#498 = DIRECTION('',(0.,0.,1.));
#499 = ADVANCED_FACE('',(#500),#529,.T.);
#500 = FACE_BOUND('',#501,.T.);
#501 = EDGE_LOOP('',(#502,#503,#504,#505,#506,#514,#522,#528));
#502 = ORIENTED_EDGE('',*,*,#488,.T.);
#503 = ORIENTED_EDGE('',*,*,#350,.T.);
#504 = ORIENTED_EDGE('',*,*,#471,.T.);
#505 = ORIENTED_EDGE('',*,*,#231,.T.);
#506 = ORIENTED_EDGE('',*,*,#507,.F.);
#507 = EDGE_CURVE('',#508,#224,#510,.T.);
#508 = VERTEX_POINT('',#509);
#509 = CARTESIAN_POINT('',(35.7,12.539745962156,2.8));
#510 = LINE('',#511,#512);
#511 = CARTESIAN_POINT('',(35.7,12.539745962156,16.9));
#512 = VECTOR('',#513,1.);
#513 = DIRECTION('',(0.,0.,1.));
#514 = ORIENTED_EDGE('',*,*,#515,.F.);
#515 = EDGE_CURVE('',#516,#508,#518,.T.);
#516 = VERTEX_POINT('',#517);
#517 = CARTESIAN_POINT('',(35.7,-12.53974596215,2.8));
#518 = LINE('',#519,#520);
#519 = CARTESIAN_POINT('',(35.7,2.944587372062E-16,2.8));
#520 = VECTOR('',#521,1.);
#521 = DIRECTION('',(0.,1.,0.));
#522 = ORIENTED_EDGE('',*,*,#523,.T.);
#523 = EDGE_CURVE('',#516,#150,#524,.T.);
#524 = LINE('',#525,#526);
#525 = CARTESIAN_POINT('',(35.7,-12.53974596215,7.5));
#526 = VECTOR('',#527,1.);
#527 = DIRECTION('',(0.,0.,1.));
#528 = ORIENTED_EDGE('',*,*,#149,.T.);
#529 = PLANE('',#530);
#530 = AXIS2_PLACEMENT_3D('',#531,#532,#533);
#531 = CARTESIAN_POINT('',(35.7,3.626843256672E-02,8.108381007117));
#532 = DIRECTION('',(-1.,-0.,-0.));
#533 = DIRECTION('',(0.,0.,-1.));
#534 = ADVANCED_FACE('',(#535),#610,.T.);
#535 = FACE_BOUND('',#536,.T.);
#536 = EDGE_LOOP('',(#537,#545,#546,#554,#563,#571,#579,#587,#595,#603)
  );
#537 = ORIENTED_EDGE('',*,*,#538,.T.);
#538 = EDGE_CURVE('',#539,#516,#541,.T.);
#539 = VERTEX_POINT('',#540);
#540 = CARTESIAN_POINT('',(-38.5,-12.53974596215,2.8));
#541 = LINE('',#542,#543);
#542 = CARTESIAN_POINT('',(-15.07235126291,-12.53974596215,2.8));
#543 = VECTOR('',#544,1.);
#544 = DIRECTION('',(1.,0.,0.));
#545 = ORIENTED_EDGE('',*,*,#515,.T.);
#546 = ORIENTED_EDGE('',*,*,#547,.T.);
#547 = EDGE_CURVE('',#508,#548,#550,.T.);
#548 = VERTEX_POINT('',#549);
#549 = CARTESIAN_POINT('',(-38.5,12.539745962156,2.8));
#550 = LINE('',#551,#552);
#551 = CARTESIAN_POINT('',(-15.07235126291,12.539745962156,2.8));
#552 = VECTOR('',#553,1.);
#553 = DIRECTION('',(-1.,0.,0.));
#554 = ORIENTED_EDGE('',*,*,#555,.F.);
#555 = EDGE_CURVE('',#556,#548,#558,.T.);
#556 = VERTEX_POINT('',#557);
#557 = CARTESIAN_POINT('',(-40.92487113059,13.939745962156,2.8));
#558 = CIRCLE('',#559,2.8);
#559 = AXIS2_PLACEMENT_3D('',#560,#561,#562);
#560 = CARTESIAN_POINT('',(-38.5,15.339745962156,2.8));
#561 = DIRECTION('',(-0.,0.,1.));
#562 = DIRECTION('',(1.,-1.110223024625E-16,0.));
#563 = ORIENTED_EDGE('',*,*,#564,.T.);
#564 = EDGE_CURVE('',#556,#565,#567,.T.);
#565 = VERTEX_POINT('',#566);
#566 = CARTESIAN_POINT('',(-45.11658075373,21.2,2.8));
#567 = LINE('',#568,#569);
#568 = CARTESIAN_POINT('',(-37.80930652361,8.543429768605,2.8));
#569 = VECTOR('',#570,1.);
#570 = DIRECTION('',(-0.5,0.866025403784,0.));
#571 = ORIENTED_EDGE('',*,*,#572,.T.);
#572 = EDGE_CURVE('',#565,#573,#575,.T.);
#573 = VERTEX_POINT('',#574);
#574 = CARTESIAN_POINT('',(-88.7,21.2,2.8));
#575 = LINE('',#576,#577);
#576 = CARTESIAN_POINT('',(-48.82235126291,21.2,2.8));
#577 = VECTOR('',#578,1.);
#578 = DIRECTION('',(-1.,0.,0.));
#579 = ORIENTED_EDGE('',*,*,#580,.T.);
#580 = EDGE_CURVE('',#573,#581,#583,.T.);
#581 = VERTEX_POINT('',#582);
#582 = CARTESIAN_POINT('',(-88.7,-21.2,2.8));
#583 = LINE('',#584,#585);
#584 = CARTESIAN_POINT('',(-88.7,6.113431551469E-17,2.8));
#585 = VECTOR('',#586,1.);
#586 = DIRECTION('',(0.,-1.,0.));
#587 = ORIENTED_EDGE('',*,*,#588,.T.);
#588 = EDGE_CURVE('',#581,#589,#591,.T.);
#589 = VERTEX_POINT('',#590);
#590 = CARTESIAN_POINT('',(-45.11658075373,-21.2,2.8));
#591 = LINE('',#592,#593);
#592 = CARTESIAN_POINT('',(-48.82235126291,-21.2,2.8));
#593 = VECTOR('',#594,1.);
#594 = DIRECTION('',(1.,0.,0.));
#595 = ORIENTED_EDGE('',*,*,#596,.T.);
#596 = EDGE_CURVE('',#589,#597,#599,.T.);
#597 = VERTEX_POINT('',#598);
#598 = CARTESIAN_POINT('',(-40.92487113059,-13.93974596215,2.8));
#599 = LINE('',#600,#601);
#600 = CARTESIAN_POINT('',(-37.80930652361,-8.543429768605,2.8));
#601 = VECTOR('',#602,1.);
#602 = DIRECTION('',(0.5,0.866025403784,0.));
#603 = ORIENTED_EDGE('',*,*,#604,.F.);
#604 = EDGE_CURVE('',#539,#597,#605,.T.);
#605 = CIRCLE('',#606,2.8);
#606 = AXIS2_PLACEMENT_3D('',#607,#608,#609);
#607 = CARTESIAN_POINT('',(-38.5,-15.33974596215,2.8));
#608 = DIRECTION('',(0.,-0.,1.));
#609 = DIRECTION('',(1.,1.110223024625E-16,0.));
#610 = PLANE('',#611);
#611 = AXIS2_PLACEMENT_3D('',#612,#613,#614);
#612 = CARTESIAN_POINT('',(-30.14470252582,1.222686310294E-16,2.8));
#613 = DIRECTION('',(0.,0.,1.));
#614 = DIRECTION('',(1.,0.,0.));
#615 = ADVANCED_FACE('',(#616),#627,.T.);
#616 = FACE_BOUND('',#617,.T.);
#617 = EDGE_LOOP('',(#618,#619,#620,#626));
#618 = ORIENTED_EDGE('',*,*,#507,.T.);
#619 = ORIENTED_EDGE('',*,*,#223,.T.);
#620 = ORIENTED_EDGE('',*,*,#621,.F.);
#621 = EDGE_CURVE('',#548,#215,#622,.T.);
#622 = LINE('',#623,#624);
#623 = CARTESIAN_POINT('',(-38.5,12.539745962156,16.9));
#624 = VECTOR('',#625,1.);
#625 = DIRECTION('',(0.,0.,1.));
#626 = ORIENTED_EDGE('',*,*,#547,.F.);
#627 = PLANE('',#628);
#628 = AXIS2_PLACEMENT_3D('',#629,#630,#631);
#629 = CARTESIAN_POINT('',(-1.4,12.539745962156,10.85));
#630 = DIRECTION('',(-0.,-1.,-0.));
#631 = DIRECTION('',(0.,0.,-1.));
#632 = ADVANCED_FACE('',(#633),#649,.T.);
#633 = FACE_BOUND('',#634,.T.);
#634 = EDGE_LOOP('',(#635,#641,#642,#648));
#635 = ORIENTED_EDGE('',*,*,#636,.F.);
#636 = EDGE_CURVE('',#565,#199,#637,.T.);
#637 = LINE('',#638,#639);
#638 = CARTESIAN_POINT('',(-45.11658075373,21.2,16.9));
#639 = VECTOR('',#640,1.);
#640 = DIRECTION('',(0.,0.,1.));
#641 = ORIENTED_EDGE('',*,*,#564,.F.);
#642 = ORIENTED_EDGE('',*,*,#643,.T.);
#643 = EDGE_CURVE('',#556,#207,#644,.T.);
#644 = LINE('',#645,#646);
#645 = CARTESIAN_POINT('',(-40.92487113059,13.939745962156,0.));
#646 = VECTOR('',#647,1.);
#647 = DIRECTION('',(0.,0.,1.));
#648 = ORIENTED_EDGE('',*,*,#206,.T.);
#649 = PLANE('',#650);
#650 = AXIS2_PLACEMENT_3D('',#651,#652,#653);
#651 = CARTESIAN_POINT('',(-43.02072594216,17.569872981078,10.85));
#652 = DIRECTION('',(-0.866025403784,-0.5,-0.));
#653 = DIRECTION('',(0.5,-0.866025403784,0.));
#654 = ADVANCED_FACE('',(#655),#666,.T.);
#655 = FACE_BOUND('',#656,.T.);
#656 = EDGE_LOOP('',(#657,#658,#659,#665));
#657 = ORIENTED_EDGE('',*,*,#636,.T.);
#658 = ORIENTED_EDGE('',*,*,#198,.T.);
#659 = ORIENTED_EDGE('',*,*,#660,.F.);
#660 = EDGE_CURVE('',#573,#191,#661,.T.);
#661 = LINE('',#662,#663);
#662 = CARTESIAN_POINT('',(-88.7,21.2,16.9));
#663 = VECTOR('',#664,1.);
#664 = DIRECTION('',(0.,0.,1.));
#665 = ORIENTED_EDGE('',*,*,#572,.F.);
#666 = PLANE('',#667);
#667 = AXIS2_PLACEMENT_3D('',#668,#669,#670);
#668 = CARTESIAN_POINT('',(-66.90829037686,21.2,10.85));
#669 = DIRECTION('',(-0.,-1.,-0.));
#670 = DIRECTION('',(0.,0.,-1.));
#671 = ADVANCED_FACE('',(#672),#683,.T.);
#672 = FACE_BOUND('',#673,.T.);
#673 = EDGE_LOOP('',(#674,#675,#676,#682));
#674 = ORIENTED_EDGE('',*,*,#660,.T.);
#675 = ORIENTED_EDGE('',*,*,#190,.T.);
#676 = ORIENTED_EDGE('',*,*,#677,.F.);
#677 = EDGE_CURVE('',#581,#183,#678,.T.);
#678 = LINE('',#679,#680);
#679 = CARTESIAN_POINT('',(-88.7,-21.2,16.9));
#680 = VECTOR('',#681,1.);
#681 = DIRECTION('',(0.,0.,1.));
#682 = ORIENTED_EDGE('',*,*,#580,.F.);
#683 = PLANE('',#684);
#684 = AXIS2_PLACEMENT_3D('',#685,#686,#687);
#685 = CARTESIAN_POINT('',(-88.7,-9.71682373689E-16,10.85));
#686 = DIRECTION('',(1.,0.,0.));
#687 = DIRECTION('',(0.,0.,1.));
#688 = ADVANCED_FACE('',(#689),#700,.T.);
#689 = FACE_BOUND('',#690,.T.);
#690 = EDGE_LOOP('',(#691,#692,#693,#699));
#691 = ORIENTED_EDGE('',*,*,#677,.T.);
#692 = ORIENTED_EDGE('',*,*,#182,.T.);
#693 = ORIENTED_EDGE('',*,*,#694,.F.);
#694 = EDGE_CURVE('',#589,#175,#695,.T.);
#695 = LINE('',#696,#697);
#696 = CARTESIAN_POINT('',(-45.11658075373,-21.2,16.9));
#697 = VECTOR('',#698,1.);
#698 = DIRECTION('',(0.,0.,1.));
#699 = ORIENTED_EDGE('',*,*,#588,.F.);
#700 = PLANE('',#701);
#701 = AXIS2_PLACEMENT_3D('',#702,#703,#704);
#702 = CARTESIAN_POINT('',(-66.90829037686,-21.2,10.85));
#703 = DIRECTION('',(0.,1.,0.));
#704 = DIRECTION('',(0.,0.,1.));
#705 = ADVANCED_FACE('',(#706),#717,.T.);
#706 = FACE_BOUND('',#707,.T.);
#707 = EDGE_LOOP('',(#708,#709,#710,#716));
#708 = ORIENTED_EDGE('',*,*,#694,.T.);
#709 = ORIENTED_EDGE('',*,*,#174,.F.);
#710 = ORIENTED_EDGE('',*,*,#711,.F.);
#711 = EDGE_CURVE('',#597,#166,#712,.T.);
#712 = LINE('',#713,#714);
#713 = CARTESIAN_POINT('',(-40.92487113059,-13.93974596215,16.9));
#714 = VECTOR('',#715,1.);
#715 = DIRECTION('',(0.,0.,1.));
#716 = ORIENTED_EDGE('',*,*,#596,.F.);
#717 = PLANE('',#718);
#718 = AXIS2_PLACEMENT_3D('',#719,#720,#721);
#719 = CARTESIAN_POINT('',(-43.02072594216,-17.56987298107,10.85));
#720 = DIRECTION('',(-0.866025403784,0.5,0.));
#721 = DIRECTION('',(-0.5,-0.866025403784,0.));
#722 = ADVANCED_FACE('',(#723),#734,.T.);
#723 = FACE_BOUND('',#724,.T.);
#724 = EDGE_LOOP('',(#725,#726,#727,#728));
#725 = ORIENTED_EDGE('',*,*,#157,.T.);
#726 = ORIENTED_EDGE('',*,*,#523,.F.);
#727 = ORIENTED_EDGE('',*,*,#538,.F.);
#728 = ORIENTED_EDGE('',*,*,#729,.T.);
#729 = EDGE_CURVE('',#539,#158,#730,.T.);
#730 = LINE('',#731,#732);
#731 = CARTESIAN_POINT('',(-38.5,-12.53974596215,10.));
#732 = VECTOR('',#733,1.);
#733 = DIRECTION('',(0.,0.,1.));
#734 = PLANE('',#735);
#735 = AXIS2_PLACEMENT_3D('',#736,#737,#738);
#736 = CARTESIAN_POINT('',(-1.4,-12.53974596215,10.85));
#737 = DIRECTION('',(0.,1.,0.));
#738 = DIRECTION('',(0.,0.,1.));
#739 = ADVANCED_FACE('',(#740),#746,.T.);
#740 = FACE_BOUND('',#741,.T.);
#741 = EDGE_LOOP('',(#742,#743,#744,#745));
#742 = ORIENTED_EDGE('',*,*,#643,.F.);
#743 = ORIENTED_EDGE('',*,*,#555,.T.);
#744 = ORIENTED_EDGE('',*,*,#621,.T.);
#745 = ORIENTED_EDGE('',*,*,#214,.T.);
#746 = CYLINDRICAL_SURFACE('',#747,2.8);
#747 = AXIS2_PLACEMENT_3D('',#748,#749,#750);
#748 = CARTESIAN_POINT('',(-38.5,15.339745962156,16.9));
#749 = DIRECTION('',(0.,0.,-1.));
#750 = DIRECTION('',(1.,-1.110223024625E-16,0.));
#751 = ADVANCED_FACE('',(#752),#758,.T.);
#752 = FACE_BOUND('',#753,.F.);
#753 = EDGE_LOOP('',(#754,#755,#756,#757));
#754 = ORIENTED_EDGE('',*,*,#729,.T.);
#755 = ORIENTED_EDGE('',*,*,#165,.T.);
#756 = ORIENTED_EDGE('',*,*,#711,.F.);
#757 = ORIENTED_EDGE('',*,*,#604,.F.);
#758 = CYLINDRICAL_SURFACE('',#759,2.8);
#759 = AXIS2_PLACEMENT_3D('',#760,#761,#762);
#760 = CARTESIAN_POINT('',(-38.5,-15.33974596215,16.9));
#761 = DIRECTION('',(0.,0.,-1.));
#762 = DIRECTION('',(1.,1.110223024625E-16,0.));
#763 = ( GEOMETRIC_REPRESENTATION_CONTEXT(3) 
GLOBAL_UNCERTAINTY_ASSIGNED_CONTEXT((#767)) GLOBAL_UNIT_ASSIGNED_CONTEXT
((#764,#765,#766)) REPRESENTATION_CONTEXT('Context #1',
  '3D Context with UNIT and UNCERTAINTY') );
#764 = ( LENGTH_UNIT() NAMED_UNIT(*) SI_UNIT(.MILLI.,.METRE.) );
#765 = ( NAMED_UNIT(*) PLANE_ANGLE_UNIT() SI_UNIT($,.RADIAN.) );
#766 = ( NAMED_UNIT(*) SI_UNIT($,.STERADIAN.) SOLID_ANGLE_UNIT() );
#767 = UNCERTAINTY_MEASURE_WITH_UNIT(LENGTH_MEASURE(5.E-05),#764,
  'distance_accuracy_value','confusion accuracy');
#768 = PRODUCT_RELATED_PRODUCT_CATEGORY('part',$,(#7));
#769 = MECHANICAL_DESIGN_GEOMETRIC_PRESENTATION_REPRESENTATION('',(#770)
  ,#763);
#770 = STYLED_ITEM('color',(#771),#15);
#771 = PRESENTATION_STYLE_ASSIGNMENT((#772,#778));
#772 = SURFACE_STYLE_USAGE(.BOTH.,#773);
#773 = SURFACE_SIDE_STYLE('',(#774));
#774 = SURFACE_STYLE_FILL_AREA(#775);
#775 = FILL_AREA_STYLE('',(#776));
#776 = FILL_AREA_STYLE_COLOUR('',#777);
#777 = COLOUR_RGB('',0.447058818107,0.474509808674,0.501960817233);
#778 = CURVE_STYLE('',#779,POSITIVE_LENGTH_MEASURE(0.1),#780);
#779 = DRAUGHTING_PRE_DEFINED_CURVE_FONT('continuous');
#780 = COLOUR_RGB('',9.803921802644E-02,9.803921802644E-02,
  9.803921802644E-02);
ENDSEC;
END-ISO-10303-21;
